<?xml version="1.0" encoding="utf-8"?>
<!-- Generator: Adobe Illustrator 24.3.0, SVG Export Plug-In . SVG Version: 6.00 Build 0)  -->
<svg version="1.1" id="Layer_1" xmlns="http://www.w3.org/2000/svg" xmlns:xlink="http://www.w3.org/1999/xlink" x="0px" y="0px"
	 viewBox="0 0 1080 1080" style="enable-background:new 0 0 1080 1080;" xml:space="preserve" width="160px" height="160px">
<style type="text/css">
	.st0{fill:#00C412;}
	.st1{fill:#141414;}
</style>
<g>
	<g>
		<polygon class="st0" points="134,711.2 133.9,711.2 133.9,711.1 		"/>
		<polygon class="st0" points="263.5,567.1 263.5,666.8 223.6,711.2 134,711.2 133.9,711.1 112.8,691.1 112.8,607.7 180.6,659.3 		
			"/>
		<path class="st1" d="M462.4,586c-9.9-10.7-23.2-17.8-39.7-21.3v-1.4c11.5-4.8,20.5-12.3,27-22.4c6.5-10.2,9.8-21.8,9.8-34.8
			c0-11.2-2.4-21.2-7.1-29.8c-2.1-3.9-4.8-7.5-7.9-10.6c-3.8-3.8-8.3-7.2-13.5-10c-8.9-4.8-18.3-7.9-28.5-9.4
			c-7.1-1.1-16.6-1.7-28.4-2c-5-0.1-10.4-0.2-16.2-0.2h-94.4v123.2l66.1-73.5l0.6-0.7h0.1v0h4.7c12,0,21,0.1,27,0.3
			c6,0.2,11.3,1.2,15.7,3.1c4.7,2,8.1,5.3,10.3,9.9c2.2,4.6,3.3,9,3.3,13.3c0,0.6,0,1.1,0,1.7c0,1.4-0.1,2.7-0.3,4l-20.4,22.6
			l-3.9,4.3L263.5,666.8v44.4h107c18.6,0,33.8-1.7,45.9-5c12-3.3,23.1-9,33.1-16.9c8.5-6.6,15.3-14.9,20.3-25
			c5-10.1,7.5-21.7,7.5-35C477.3,611.1,472.3,596.7,462.4,586z M404,645.4c-2.8,5.1-7.3,8.9-13.4,11.6c-6.9,3-13.8,4.6-20.5,4.8
			c-6.7,0.2-18.8,0.4-36.3,0.4h-3.6v-67h12.4c12,0,21.5,0.1,28.6,0.3c7.1,0.2,12.7,1.1,16.8,2.6c6.7,2.4,11.7,5.9,15.1,10.6
			c3.4,4.7,5,11.1,5,19.4C408.2,634.5,406.8,640.3,404,645.4z"/>
		<polygon points="334.9,492.9 330.3,492.9 330.3,492.9 		"/>
		<path class="st0" d="M531.6,368.8l-87,96.8c-3.8-3.8-8.3-7.2-13.5-10c-8.9-4.8-18.3-7.9-28.5-9.4c-7.1-1.1-16.6-1.7-28.4-2
			l67.7-75.3H531.6z"/>
	</g>
	<g>
		<path class="st1" d="M512,511.5h13.8v66.1H512V511.5z M518.9,567.2h18.8c3.9,0,7-0.8,9.1-2.4c2.1-1.6,3.2-3.9,3.2-7v-0.1
			c0-2-0.5-3.7-1.4-5.1c-1-1.4-2.4-2.4-4.3-3.1c-1.9-0.7-4.3-1.1-7.1-1.1h-18.2v-9.4h16.6c3.9,0,6.9-0.8,8.9-2.3c2-1.6,3-3.8,3-6.6
			V530c0-2.6-0.9-4.7-2.7-6.1c-1.8-1.4-4.3-2.2-7.6-2.2h-18.3v-10.3h21.8c4.2,0,7.8,0.7,10.8,2c3,1.3,5.4,3.3,7,5.7
			c1.6,2.5,2.5,5.4,2.5,8.8v0.1c0,2.4-0.6,4.7-1.7,6.8c-1.1,2.1-2.6,3.8-4.6,5.1c-1.9,1.4-4.1,2.2-6.5,2.5v0.3
			c3.1,0.2,5.8,1,8.2,2.4c2.4,1.4,4.2,3.3,5.6,5.6c1.4,2.3,2,4.9,2,7.8v0.1c0,3.8-0.9,7.2-2.8,10c-1.8,2.8-4.5,5-7.9,6.5
			c-3.4,1.5-7.5,2.3-12.2,2.3h-22.3V567.2z"/>
		<path class="st1" d="M571.2,511.5h13.4v25.5h0.3c1.3-3.1,3.2-5.4,5.7-7c2.5-1.6,5.7-2.4,9.3-2.4c3.6,0,6.6,0.8,9.2,2.4
			c2.6,1.6,4.5,3.8,5.9,6.7c1.4,2.9,2.1,6.3,2.1,10.3v30.8h-13.4v-28.1c0-3.4-0.8-6.1-2.4-8c-1.6-1.9-4-2.9-7-2.9
			c-2,0-3.7,0.5-5.1,1.4c-1.4,0.9-2.6,2.2-3.4,3.8c-0.8,1.6-1.2,3.5-1.2,5.7v28.1h-13.4V511.5z"/>
		<path class="st1" d="M631.6,576.4c-2.5-1.3-4.4-3-5.8-5.3c-1.4-2.2-2.1-4.8-2.1-7.7v-0.1c0-4.5,1.7-8,5-10.5c3.3-2.5,8-4,14.1-4.4
			l19.1-1.2v8.3l-17.1,1.1c-2.6,0.2-4.5,0.7-5.9,1.8c-1.3,1-2,2.4-2,4.2v0.1c0,1.8,0.7,3.2,2.1,4.2c1.4,1,3.2,1.5,5.5,1.5
			c2,0,3.8-0.4,5.3-1.2c1.6-0.8,2.8-1.8,3.7-3.2c0.9-1.4,1.4-2.9,1.4-4.6v-14.9c0-2.2-0.7-3.9-2.1-5.1c-1.4-1.3-3.4-1.9-6-1.9
			c-2.5,0-4.5,0.5-6,1.5c-1.5,1-2.4,2.3-2.7,3.9l-0.1,0.4h-12.3l0-0.5c0.3-3,1.3-5.7,3-8.1c1.8-2.3,4.2-4.2,7.3-5.5
			c3.1-1.3,6.8-2,11.1-2c4.2,0,7.9,0.7,11,2s5.5,3.3,7.3,5.7c1.7,2.5,2.6,5.4,2.6,8.7v33.7H655v-7.3h-0.3c-0.9,1.6-2.1,3.1-3.6,4.3
			c-1.4,1.2-3.1,2.2-4.9,2.8c-1.8,0.6-3.8,1-6,1C637,578.3,634.1,577.7,631.6,576.4z"/>
		<path class="st1" d="M677,528.5h13.4v8.6h0.3c0.7-3,2.1-5.4,4-7.1c1.9-1.7,4.3-2.5,7.2-2.5c0.7,0,1.4,0,2.1,0.1
			c0.7,0.1,1.3,0.2,1.7,0.4v11.8c-0.5-0.2-1.3-0.4-2.1-0.6c-0.9-0.1-1.8-0.2-2.7-0.2c-2.2,0-4.1,0.4-5.6,1.3
			c-1.6,0.9-2.7,2.1-3.6,3.8c-0.8,1.6-1.2,3.7-1.2,6v27.5H677V528.5z"/>
		<path class="st1" d="M711.1,528.5h13.4v8.2h0.3c1-2.8,2.7-5.1,5.1-6.7c2.4-1.7,5.3-2.5,8.6-2.5c2.3,0,4.3,0.4,6.2,1.2
			c1.8,0.8,3.4,1.9,4.6,3.4c1.3,1.5,2.2,3.3,2.7,5.5h0.3c0.7-2.1,1.8-3.9,3.3-5.4c1.5-1.5,3.2-2.7,5.3-3.5c2-0.8,4.2-1.2,6.7-1.2
			c3.2,0,6,0.7,8.4,2.1c2.4,1.4,4.3,3.3,5.6,5.8s2,5.4,2,8.7v33.6h-13.4v-30.2c0-2.8-0.7-5-2.1-6.5c-1.4-1.5-3.4-2.3-6-2.3
			c-1.7,0-3.2,0.4-4.4,1.2s-2.3,1.9-3,3.2c-0.7,1.4-1.1,3-1.1,4.8v29.8h-12.9V547c0-2.7-0.7-4.7-2.1-6.2c-1.4-1.5-3.3-2.2-5.8-2.2
			c-1.7,0-3.2,0.4-4.4,1.2c-1.3,0.8-2.3,1.9-3,3.3c-0.7,1.4-1.1,3-1.1,4.9v29.6h-13.4V528.5z"/>
		<path class="st1" d="M798,576.4c-2.5-1.3-4.4-3-5.8-5.3c-1.4-2.2-2.1-4.8-2.1-7.7v-0.1c0-4.5,1.7-8,5-10.5c3.3-2.5,8-4,14.1-4.4
			l19.1-1.2v8.3l-17.1,1.1c-2.6,0.2-4.5,0.7-5.9,1.8c-1.3,1-2,2.4-2,4.2v0.1c0,1.8,0.7,3.2,2.1,4.2c1.4,1,3.2,1.5,5.5,1.5
			c2,0,3.8-0.4,5.3-1.2c1.6-0.8,2.8-1.8,3.7-3.2c0.9-1.4,1.4-2.9,1.4-4.6v-14.9c0-2.2-0.7-3.9-2.1-5.1c-1.4-1.3-3.4-1.9-6-1.9
			c-2.5,0-4.5,0.5-6,1.5c-1.5,1-2.4,2.3-2.7,3.9l-0.1,0.4h-12.3l0-0.5c0.3-3,1.3-5.7,3-8.1c1.8-2.3,4.2-4.2,7.3-5.5
			c3.1-1.3,6.8-2,11.1-2c4.2,0,7.9,0.7,11,2s5.5,3.3,7.3,5.7c1.7,2.5,2.6,5.4,2.6,8.7v33.7h-13.4v-7.3h-0.3
			c-0.9,1.6-2.1,3.1-3.6,4.3c-1.4,1.2-3.1,2.2-4.9,2.8c-1.8,0.6-3.8,1-6,1C803.4,578.3,800.5,577.7,798,576.4z"/>
		<path class="st1" d="M843.3,528.5h13.4v8.1h0.3c1.3-2.8,3.2-5,5.7-6.6c2.5-1.6,5.6-2.4,9.3-2.4c5.4,0,9.6,1.6,12.5,4.9
			c2.9,3.3,4.4,7.8,4.4,13.5v31.7h-13.4v-28.9c0-3.2-0.8-5.7-2.3-7.5c-1.5-1.8-3.8-2.7-6.8-2.7c-2,0-3.7,0.5-5.2,1.4
			c-1.5,0.9-2.6,2.2-3.4,3.8c-0.8,1.6-1.2,3.5-1.2,5.6v28.2h-13.4V528.5z"/>
		<path class="st1" d="M899.2,520.1c-1.4-1.4-2.1-3-2.1-4.9c0-1.9,0.7-3.6,2.1-4.9c1.4-1.4,3.1-2,5.1-2c2,0,3.7,0.7,5.1,2
			s2.1,3,2.1,4.9c0,1.9-0.7,3.5-2.1,4.9c-1.4,1.4-3.1,2.1-5.1,2.1C902.3,522.2,900.6,521.5,899.2,520.1z M897.6,528.5H911v49.1
			h-13.4V528.5z"/>
		<path class="st1" d="M524.7,668.3c-4.7-2.7-8.4-6.7-10.9-11.8c-2.6-5.1-3.8-11.2-3.8-18.3v0c0-7.1,1.3-13.2,3.8-18.3
			c2.6-5.1,6.2-9,10.9-11.7c4.7-2.7,10.3-4.1,16.7-4.1c5.3,0,10.1,1,14.3,3.1c4.2,2.1,7.5,4.9,10.1,8.6c2.5,3.6,4,7.8,4.4,12.5
			l0,0.5h-13.5l-0.2-0.8c-0.5-2.4-1.4-4.6-2.8-6.4c-1.3-1.8-3.1-3.2-5.1-4.2c-2.1-1-4.5-1.5-7.2-1.5c-3.5,0-6.6,0.9-9.2,2.7
			c-2.6,1.8-4.6,4.4-6,7.7c-1.4,3.3-2.1,7.3-2.1,11.9v0c0,4.6,0.7,8.6,2.1,12c1.4,3.4,3.4,6,6,7.8c2.6,1.8,5.7,2.7,9.2,2.7
			c2.7,0,5-0.5,7.1-1.5c2.1-1,3.8-2.4,5.2-4.2c1.4-1.8,2.4-4.1,3-6.7l0.1-0.5h13.5l0,0.5c-0.4,4.7-1.9,8.8-4.5,12.5
			c-2.5,3.6-5.9,6.5-10.1,8.5c-4.2,2.1-8.9,3.1-14.3,3.1C535,672.5,529.4,671.1,524.7,668.3z"/>
		<path class="st1" d="M587.3,669.3c-3.6-2-6.4-5-8.4-8.8c-2-3.8-3-8.4-3-13.7v-0.1c0-5.3,1-9.8,3-13.6c2-3.8,4.9-6.7,8.5-8.8
			s7.9-3.1,12.8-3.1c4.9,0,9.2,1,12.8,3c3.6,2,6.5,4.9,8.5,8.7c2,3.8,3,8.4,3,13.7v0.1c0,5.3-1,9.9-3,13.7c-2,3.8-4.8,6.7-8.4,8.8
			c-3.6,2-7.9,3-12.9,3C595.2,672.3,590.9,671.3,587.3,669.3z M605.9,660.1c1.6-1.2,2.8-2.9,3.7-5.1s1.3-5,1.3-8.2v-0.1
			c0-3.1-0.4-5.8-1.3-8.1c-0.9-2.2-2.1-4-3.7-5.1c-1.6-1.2-3.5-1.8-5.7-1.8c-2.1,0-4,0.6-5.6,1.8c-1.6,1.2-2.8,2.9-3.7,5.1
			c-0.9,2.2-1.3,4.9-1.3,8.1v0.1c0,3.2,0.4,5.9,1.3,8.2c0.9,2.2,2.1,4,3.7,5.1s3.5,1.8,5.7,1.8C602.4,661.8,604.3,661.2,605.9,660.1
			z"/>
		<path class="st1" d="M631.4,622.2h13.4v8.1h0.3c1.3-2.8,3.2-5,5.7-6.6c2.5-1.6,5.6-2.4,9.3-2.4c5.4,0,9.6,1.6,12.5,4.9
			c2.9,3.3,4.4,7.8,4.4,13.5v31.7h-13.4v-28.9c0-3.2-0.8-5.7-2.3-7.5c-1.5-1.8-3.8-2.7-6.8-2.7c-2,0-3.7,0.5-5.2,1.4
			c-1.5,0.9-2.6,2.2-3.4,3.8c-0.8,1.6-1.2,3.5-1.2,5.6v28.2h-13.4V622.2z"/>
		<path class="st1" d="M694,670.3c-3.2-1.3-5.7-3.1-7.4-5.5c-1.8-2.3-2.8-5-3.2-8.1l0-0.4h13l0.1,0.4c0.4,1.9,1.4,3.4,2.9,4.5
			c1.5,1.1,3.6,1.6,6.2,1.6c1.7,0,3.2-0.2,4.4-0.6c1.2-0.4,2.1-1,2.8-1.8c0.7-0.8,1-1.7,1-2.7v0c0-1.3-0.5-2.4-1.4-3.2
			c-0.9-0.8-2.6-1.5-5-2l-8.3-1.8c-4.8-1-8.3-2.7-10.8-5c-2.4-2.4-3.6-5.4-3.6-9.1v0c0-3.1,0.8-5.9,2.5-8.1c1.7-2.3,4.1-4.1,7.2-5.3
			c3.1-1.3,6.7-1.9,10.9-1.9c4.3,0,8,0.7,11.1,2.1s5.4,3.3,7,5.6c1.6,2.3,2.5,5,2.6,7.8v0.5h-12.3l0-0.4c-0.2-1.7-1-3.2-2.4-4.4
			c-1.4-1.2-3.4-1.8-5.8-1.8c-1.5,0-2.9,0.2-4,0.6c-1.1,0.4-2,1-2.6,1.8c-0.6,0.8-0.9,1.7-0.9,2.7v0c0,1.2,0.5,2.3,1.5,3.2
			c1,0.9,2.7,1.5,5.2,2.1l8.3,1.8c5.2,1.1,8.9,2.7,11.1,4.8c2.2,2.1,3.4,5,3.4,8.6v0c0,3.2-0.9,6-2.7,8.4c-1.8,2.4-4.4,4.2-7.6,5.6
			c-3.2,1.3-6.9,2-11.1,2C701.1,672.3,697.2,671.7,694,670.3z"/>
		<path class="st1" d="M741.2,670.1c-2.5-1.5-4.5-3.6-5.8-6.3c-1.3-2.7-2-6-2-9.8v-31.7h13.4v28.9c0,3.2,0.8,5.7,2.3,7.5
			c1.5,1.8,3.8,2.7,6.8,2.7c2,0,3.7-0.5,5.2-1.4c1.4-0.9,2.6-2.2,3.4-3.8c0.8-1.6,1.2-3.5,1.2-5.6v-28.2H779v49.1h-13.4v-8.1h-0.3
			c-1.3,2.8-3.1,5.1-5.6,6.7c-2.5,1.6-5.6,2.4-9.3,2.4C746.7,672.3,743.7,671.6,741.2,670.1z"/>
		<path class="st1" d="M788,605.2h13.4v66.1H788V605.2z"/>
		<path class="st1" d="M817.8,668.9c-2.6-2.3-3.9-6.1-3.9-11.3v-25.3H807v-10.1h6.8v-12h13.5v12h9v10.1h-9v23.8
			c0,2.3,0.5,3.9,1.5,4.8c1,0.9,2.5,1.4,4.6,1.4c0.6,0,1.1,0,1.6-0.1c0.5,0,0.9-0.1,1.3-0.2v9.8c-0.7,0.1-1.6,0.2-2.7,0.3
			c-1.1,0.1-2.3,0.2-3.7,0.2C824.5,672.3,820.4,671.2,817.8,668.9z"/>
		<path class="st1" d="M845.6,613.9c-1.4-1.4-2.1-3-2.1-4.9c0-1.9,0.7-3.6,2.1-4.9c1.4-1.4,3.1-2,5.1-2c2,0,3.7,0.7,5.1,2
			s2.1,3,2.1,4.9c0,1.9-0.7,3.5-2.1,4.9c-1.4,1.4-3.1,2.1-5.1,2.1C848.7,616,847,615.3,845.6,613.9z M843.9,622.2h13.4v49.1h-13.4
			V622.2z"/>
		<path class="st1" d="M866.3,622.2h13.4v8.1h0.3c1.3-2.8,3.2-5,5.7-6.6c2.5-1.6,5.6-2.4,9.3-2.4c5.4,0,9.6,1.6,12.5,4.9
			c2.9,3.3,4.4,7.8,4.4,13.5v31.7h-13.4v-28.9c0-3.2-0.8-5.7-2.3-7.5c-1.5-1.8-3.8-2.7-6.8-2.7c-2,0-3.7,0.5-5.2,1.4
			c-1.5,0.9-2.6,2.2-3.4,3.8c-0.8,1.6-1.2,3.5-1.2,5.6v28.2h-13.4V622.2z"/>
		<path class="st1" d="M931.5,686.5c-3.3-1.2-6-2.9-8-5c-2-2.1-3.2-4.5-3.6-7.1l-0.1-0.4h13l0.1,0.3c0.5,1.2,1.7,2.2,3.4,3.2
			c1.7,0.9,4,1.4,6.8,1.4c3.4,0,6.1-0.8,7.9-2.5c1.8-1.6,2.7-3.8,2.7-6.5v-7.6h-0.3c-0.9,1.7-2,3.2-3.5,4.4
			c-1.5,1.3-3.2,2.2-5.2,2.9c-2,0.7-4.1,1-6.5,1c-4.1,0-7.6-1-10.6-2.9c-3-2-5.3-4.8-6.9-8.4c-1.6-3.6-2.4-8-2.4-13.1v0
			c0-5.2,0.8-9.7,2.4-13.4c1.6-3.7,4-6.6,7-8.6c3-2,6.6-3,10.7-3c2.3,0,4.4,0.4,6.4,1.1c1.9,0.8,3.6,1.8,5.1,3.2
			c1.4,1.4,2.6,3.1,3.5,5h0.3v-8.4h13.4v47.7c0,3.6-1,6.8-2.9,9.6c-1.9,2.8-4.7,4.9-8.3,6.5c-3.6,1.6-7.8,2.3-12.8,2.3
			C938.8,688.3,934.8,687.7,931.5,686.5z M948.7,659.1c1.6-1.2,2.9-2.8,3.8-4.9c0.9-2.1,1.4-4.7,1.4-7.6v0c0-2.9-0.5-5.4-1.4-7.5
			c-0.9-2.1-2.2-3.8-3.8-4.9c-1.6-1.2-3.5-1.7-5.7-1.7c-2.2,0-4.1,0.6-5.8,1.7c-1.6,1.1-2.9,2.8-3.8,4.9c-0.9,2.1-1.3,4.6-1.3,7.6v0
			c0,2.9,0.4,5.5,1.3,7.6c0.9,2.1,2.2,3.8,3.8,4.9c1.6,1.2,3.6,1.7,5.8,1.7C945.2,660.8,947.1,660.2,948.7,659.1z"/>
	</g>
</g>
</svg>
